HIERARCHY
ROOT Model
{
	OFFSET 0 0 0
	CHANNELS 6 Xposition Yposition Zposition Zrotation Xrotation Yrotation
	JOINT Model1
	{
		OFFSET 0 -2.25479 2.99383
		CHANNELS 3 Zrotation Xrotation Yrotation
		JOINT Model2
		{
			OFFSET 12.111 0 0
			CHANNELS 3 Zrotation Xrotation Yrotation
			JOINT Model3
			{
				OFFSET 11.5502 0 0
				CHANNELS 3 Zrotation Xrotation Yrotation
				JOINT Model4
				{
					OFFSET 11.781 0 0
					CHANNELS 3 Zrotation Xrotation Yrotation
					JOINT Model5
					{
						OFFSET 20.0601 0 0
						CHANNELS 3 Zrotation Xrotation Yrotation
						JOINT Model6
						{
							OFFSET 11.1962 0 0
							CHANNELS 3 Zrotation Xrotation Yrotation
							End Site
							{
								OFFSET 0 0 0
							}
						}
					}
					JOINT Model7
					{
						OFFSET 10.8223 0.417538 3.51114
						CHANNELS 3 Zrotation Xrotation Yrotation
						JOINT Model8
						{
							OFFSET -6.07943 0 0
							CHANNELS 3 Zrotation Xrotation Yrotation
							JOINT Model9
							{
								OFFSET -0.277412 10.39 -0.0512428
								CHANNELS 3 Zrotation Xrotation Yrotation
								JOINT Model10
								{
									OFFSET -3.4391 -0.282043 1.86678
									CHANNELS 3 Zrotation Xrotation Yrotation
									JOINT Model11
									{
										OFFSET 13.0269 0 0
										CHANNELS 3 Zrotation Xrotation Yrotation
										JOINT Model12
										{
											OFFSET 10.8866 0 0
											CHANNELS 3 Zrotation Xrotation Yrotation
											JOINT Model13
											{
												OFFSET 16.7317 0 0
												CHANNELS 3 Zrotation Xrotation Yrotation
												JOINT Model14
												{
													OFFSET 11.8292 0 0
													CHANNELS 3 Zrotation Xrotation Yrotation
													JOINT Model15
													{
														OFFSET 4.82751 -3.73566 -0.836517
														CHANNELS 3 Zrotation Xrotation Yrotation
														JOINT Model16
														{
															OFFSET 3.75311 -0.0582924 -0.0186462
															CHANNELS 3 Zrotation Xrotation Yrotation
															JOINT Model17
															{
																OFFSET 2.88689 0.0192337 0.014801
																CHANNELS 3 Zrotation Xrotation Yrotation
																End Site
																{
																	OFFSET 0 0 0
																}
															}
														}
													}
													JOINT Model18
													{
														OFFSET 9.72198 -3.06458 0.238766
														CHANNELS 3 Zrotation Xrotation Yrotation
														JOINT Model19
														{
															OFFSET 4.61131 0 0
															CHANNELS 3 Zrotation Xrotation Yrotation
															JOINT Model20
															{
																OFFSET 2.8969 -1.14441e-005 0
																CHANNELS 3 Zrotation Xrotation Yrotation
																End Site
																{
																	OFFSET 0 0 0
																}
															}
														}
													}
													JOINT Model21
													{
														OFFSET 9.5443 -0.745064 0.588936
														CHANNELS 3 Zrotation Xrotation Yrotation
														JOINT Model22
														{
															OFFSET 5.33978 0 0
															CHANNELS 3 Zrotation Xrotation Yrotation
															JOINT Model23
															{
																OFFSET 3.03619 1.14441e-005 0
																CHANNELS 3 Zrotation Xrotation Yrotation
																End Site
																{
																	OFFSET 0 0 0
																}
															}
														}
													}
													JOINT Model24
													{
														OFFSET 9.47759 1.51286 0.485119
														CHANNELS 3 Zrotation Xrotation Yrotation
														JOINT Model25
														{
															OFFSET 4.96136 1.14441e-005 0
															CHANNELS 3 Zrotation Xrotation Yrotation
															JOINT Model26
															{
																OFFSET 2.51965 0 0
																CHANNELS 3 Zrotation Xrotation Yrotation
																End Site
																{
																	OFFSET 0 0 0
																}
															}
														}
													}
													JOINT Model27
													{
														OFFSET 9.34248 3.34117 -0.239281
														CHANNELS 3 Zrotation Xrotation Yrotation
														JOINT Model28
														{
															OFFSET 3.28259 2.67029e-005 0
															CHANNELS 3 Zrotation Xrotation Yrotation
															JOINT Model29
															{
																OFFSET 2.1292 0 0
																CHANNELS 3 Zrotation Xrotation Yrotation
																End Site
																{
																	OFFSET 0 0 0
																}
															}
														}
													}
												}
											}
										}
									}
								}
							}
						}
					}
					JOINT Model30
					{
						OFFSET 10.8223 0.417904 -3.51107
						CHANNELS 3 Zrotation Xrotation Yrotation
						JOINT Model31
						{
							OFFSET 6.07943 0 0
							CHANNELS 3 Zrotation Xrotation Yrotation
							JOINT Model32
							{
								OFFSET 0.277412 -10.39 0.0512428
								CHANNELS 3 Zrotation Xrotation Yrotation
								JOINT Model33
								{
									OFFSET 3.4391 0.282043 -1.86678
									CHANNELS 3 Zrotation Xrotation Yrotation
									JOINT Model34
									{
										OFFSET -13.0269 0 0
										CHANNELS 3 Zrotation Xrotation Yrotation
										JOINT Model35
										{
											OFFSET -10.8866 0 0
											CHANNELS 3 Zrotation Xrotation Yrotation
											JOINT Model36
											{
												OFFSET -16.7317 0 0
												CHANNELS 3 Zrotation Xrotation Yrotation
												JOINT Model37
												{
													OFFSET -11.8292 0 0
													CHANNELS 3 Zrotation Xrotation Yrotation
													JOINT Model38
													{
														OFFSET -4.82751 3.73566 0.836517
														CHANNELS 3 Zrotation Xrotation Yrotation
														JOINT Model39
														{
															OFFSET -3.75311 0.0582848 0.0186424
															CHANNELS 3 Zrotation Xrotation Yrotation
															JOINT Model40
															{
																OFFSET -2.88688 -0.0192375 -0.014801
																CHANNELS 3 Zrotation Xrotation Yrotation
																End Site
																{
																	OFFSET 0 0 0
																}
															}
														}
													}
													JOINT Model41
													{
														OFFSET -9.72197 3.06459 -0.23877
														CHANNELS 3 Zrotation Xrotation Yrotation
														JOINT Model42
														{
															OFFSET -4.6113 0 0
															CHANNELS 3 Zrotation Xrotation Yrotation
															JOINT Model43
															{
																OFFSET -2.8969 0 0
																CHANNELS 3 Zrotation Xrotation Yrotation
																End Site
																{
																	OFFSET 0 0 0
																}
															}
														}
													}
													JOINT Model44
													{
														OFFSET -9.5443 0.745064 -0.58894
														CHANNELS 3 Zrotation Xrotation Yrotation
														JOINT Model45
														{
															OFFSET -5.33978 0 0
															CHANNELS 3 Zrotation Xrotation Yrotation
															JOINT Model46
															{
																OFFSET -3.03619 -1.52588e-005 0
																CHANNELS 3 Zrotation Xrotation Yrotation
																End Site
																{
																	OFFSET 0 0 0
																}
															}
														}
													}
													JOINT Model47
													{
														OFFSET -9.47759 -1.51286 -0.485123
														CHANNELS 3 Zrotation Xrotation Yrotation
														JOINT Model48
														{
															OFFSET -4.96136 -1.52588e-005 0
															CHANNELS 3 Zrotation Xrotation Yrotation
															JOINT Model49
															{
																OFFSET -2.51966 0 0
																CHANNELS 3 Zrotation Xrotation Yrotation
																End Site
																{
																	OFFSET 0 0 0
																}
															}
														}
													}
													JOINT Model50
													{
														OFFSET -9.34246 -3.34118 0.239277
														CHANNELS 3 Zrotation Xrotation Yrotation
														JOINT Model51
														{
															OFFSET -3.2826 -1.90735e-005 0
															CHANNELS 3 Zrotation Xrotation Yrotation
															JOINT Model52
															{
																OFFSET -2.1292 0 0
																CHANNELS 3 Zrotation Xrotation Yrotation
																End Site
																{
																	OFFSET 0 0 0
																}
															}
														}
													}
												}
											}
										}
									}
								}
							}
						}
					}
				}
			}
		}
	}
	JOINT Model53
	{
		OFFSET 4.38026 -2.14632 -1.11516
		CHANNELS 3 Zrotation Xrotation Yrotation
		JOINT Model54
		{
			OFFSET 0 0 4.94999
			CHANNELS 3 Zrotation Xrotation Yrotation
			JOINT Model55
			{
				OFFSET 18.5642 0 0
				CHANNELS 3 Zrotation Xrotation Yrotation
				JOINT Model56
				{
					OFFSET 21.2884 0 1.14441e-005
					CHANNELS 3 Zrotation Xrotation Yrotation
					JOINT Model57
					{
						OFFSET 30.261 0 0
						CHANNELS 3 Zrotation Xrotation Yrotation
						JOINT Model58
						{
							OFFSET 11.7259 0 0
							CHANNELS 3 Zrotation Xrotation Yrotation
							JOINT Model59
							{
								OFFSET 10.682 0 0
								CHANNELS 3 Zrotation Xrotation Yrotation
								End Site
								{
									OFFSET 0 0 0
								}
							}
						}
					}
				}
			}
		}
	}
	JOINT Model60
	{
		OFFSET -4.38026 -2.14632 -1.11516
		CHANNELS 3 Zrotation Xrotation Yrotation
		JOINT Model61
		{
			OFFSET 0 0 -4.94999
			CHANNELS 3 Zrotation Xrotation Yrotation
			JOINT Model62
			{
				OFFSET -18.5642 0 0
				CHANNELS 3 Zrotation Xrotation Yrotation
				JOINT Model63
				{
					OFFSET -21.2884 0 -1.14441e-005
					CHANNELS 3 Zrotation Xrotation Yrotation
					JOINT Model64
					{
						OFFSET -30.261 0 0
						CHANNELS 3 Zrotation Xrotation Yrotation
						JOINT Model65
						{
							OFFSET -11.7259 0 0
							CHANNELS 3 Zrotation Xrotation Yrotation
							JOINT Model66
							{
								OFFSET -10.682 0 0
								CHANNELS 3 Zrotation Xrotation Yrotation
								End Site
								{
									OFFSET 0 0 0
								}
							}
						}
					}
				}
			}
		}
	}
}
MOTION
Frames: 4
Frame Time: 0.033333
38.289 127.822 62.435 -91.3536 -22.6302 -94.4383 -180 -6.53164e-013 -90 5.20442 0.691396 -0.159246 10.4118 1.36505 -0.380601 10.4118 1.36548 -0.380681 2.50555 18.3522 -19.8391 -9.10779 13.6382 4.77549 120.092 75.5343 58.4939 -2.6532 -29.094 -9.64598 -167.277 84.4999 48.8109 -170.85 -22.6283 29.13 1.25484e-005 -25.1979 2.30136e-005 -150.376 -2.97316 0.301343 -1.45108e-007 -3.46753 -3.99054e-007 3.52009 1.70445 51.6624 -72.0648 39.0385 39.3397 33.3638 2.10362 14.835 0.588947 0.308273 6.35287 -99.6409 81.413 100.35 -0.0181409 2.77686e-005 -0.117315 -0.124139 0.00241111 -0.799296 -79.8382 79.5773 80.5374 -0.000225771 -0.000220932 2.2191e-005 -0.000956219 0.000122881 -2.73253e-005 -66.7416 80.4058 67.2171 -0.000437127 1.59356e-005 -2.73239e-005 -0.000136596 -0.000109305 -5.46458e-005 -6.42159 81.2158 8.01779 -0.00021856 1.68906e-005 0.000212139 0.000901593 -0.000184826 -0.000218568 -59.9282 75.5373 58.5147 38.4512 37.7296 -6.83814 -167.277 84.4999 48.8109 121.489 -13.6779 15.8052 5.84622e-006 1.88339 2.95864e-005 -137.165 1.41797 0.414284 -1.03985e-006 2.7544 3.59118e-007 -0.0525891 0.00247546 -5.38853 -72.0648 39.0385 39.3397 33.3638 2.10361 14.835 0.588946 0.308273 6.35287 -99.6409 81.413 100.35 -0.0181409 3.0133e-005 -0.117315 -0.124139 0.0024112 -0.799296 -79.8382 79.5773 80.5374 -0.000260655 -0.000218512 2.35769e-005 -0.000956238 0.00012307 -2.73118e-005 -66.7416 80.4058 67.2171 -0.000437141 1.49357e-005 -2.73153e-005 -0.000136615 -0.000109209 -5.46341e-005 -6.42159 81.2158 8.01779 -0.000218577 1.9635e-005 0.000212296 0.000901568 -0.000191169 -0.000218567 0.00081454 0.56661 89.91 -30.4848 -21.1897 -40.6491 -5.79122e-006 -15.1975 -8.07602e-007 47.4434 12.1183 -0.00632208 4.92937e-007 18.0896 4.30407e-007 -53.0668 5.53547 -4.36656 -40.1574 -13.3208 -0.362391 -180 -0.566576 -90.09 -32.0957 1.3595 -10.5941 2.27433e-006 6.1792 -9.42937e-008 59.1738 19.7335 -0.00747884 5.87659e-007 29.4959 1.86389e-006 -73.5069 15.8008 -8.74898 -35.4947 6.83548e-007 1.79713e-007 
38.0727 129.402 62.482 -92.0273 -23.3593 -94.8349 -180 -6.53164e-013 -90 5.62886 0.78789 -0.24983 11.2626 1.54703 -0.575829 11.2626 1.54746 -0.575914 1.41081 17.9025 -19.6135 -9.13252 13.0082 4.89304 120.092 75.5343 58.4939 -1.81678 -28.4886 -9.31596 -167.277 84.4999 48.8109 -171.694 -23.4465 29.0927 1.29608e-005 -26.1198 2.31922e-005 -150.921 -3.39692 0.296392 -1.49441e-007 -4.08806 -3.99339e-007 3.40314 1.69666 52.9879 -72.0648 39.0385 39.3397 33.3638 2.10362 14.835 0.588947 0.308273 6.35287 -99.6409 81.413 100.35 -0.0181409 2.77686e-005 -0.117315 -0.124139 0.00241111 -0.799296 -79.8382 79.5773 80.5374 -0.000225771 -0.000220932 2.2191e-005 -0.000956219 0.000122881 -2.73253e-005 -66.7416 80.4058 67.2171 -0.000437127 1.59356e-005 -2.73239e-005 -0.000136596 -0.000109305 -5.46458e-005 -6.42159 81.2158 8.01779 -0.00021856 1.68906e-005 0.000212139 0.000901593 -0.000184826 -0.000218568 -59.9282 75.5373 58.5147 36.6786 37.0445 -5.99252 -167.277 84.4999 48.8109 124.624 -12.2992 17.93 4.57344e-006 4.34189 2.96555e-005 -137.637 2.15671 0.410802 -1.04689e-006 3.87524 3.59525e-007 -0.0525891 0.00247546 -5.38853 -72.0648 39.0385 39.3397 33.3638 2.10361 14.835 0.588946 0.308273 6.35287 -99.6409 81.413 100.35 -0.0181409 3.0133e-005 -0.117315 -0.124139 0.0024112 -0.799296 -79.8382 79.5773 80.5374 -0.000260655 -0.000218512 2.35769e-005 -0.000956238 0.00012307 -2.73118e-005 -66.7416 80.4058 67.2171 -0.000437141 1.49357e-005 -2.73153e-005 -0.000136615 -0.000109209 -5.46341e-005 -6.42159 81.2158 8.01779 -0.000218577 1.9635e-005 0.000212296 0.000901568 -0.000191169 -0.000218567 0.00081454 0.56661 89.91 -34.2947 -20.3509 -43.3603 -5.78869e-006 -15.0244 -8.06944e-007 51.2382 13.393 -0.00673298 4.77701e-007 19.996 4.35379e-007 -48.4844 5.97009 -4.86461 -36.1162 -1.76548 0.0760564 -180 -0.566576 -90.09 -28.4629 0.660124 -11.4038 2.27407e-006 6.02365 -9.42664e-008 54.4378 20.1086 -0.00690879 5.66283e-007 30.0646 1.8745e-006 -72.3645 14.9243 -8.46673 -35.4947 6.80883e-007 1.82819e-007 
38.2533 131.25 62.7225 -91.8738 -24.0471 -94.9899 -180 -6.53164e-013 -90 5.79209 0.810941 -0.329781 11.5904 1.584 -0.73984 11.5904 1.58443 -0.739928 1.99951 17.5562 -20.5722 -10.1896 12.4605 5.39051 120.092 75.5343 58.4939 -1.09649 -27.8184 -8.98678 -167.277 84.4999 48.8109 -173.608 -25.3518 27.8084 1.36647e-005 -27.6603 2.35106e-005 -151.44 -3.86317 0.291676 -1.54232e-007 -4.77302 -3.99709e-007 4.02261 2.00714 53.0211 -72.0648 39.0385 39.3397 33.3638 2.10362 14.835 0.588947 0.308273 6.35287 -99.6409 81.413 100.35 -0.0181409 2.77686e-005 -0.117315 -0.124139 0.00241111 -0.799296 -79.8382 79.5773 80.5374 -0.000225771 -0.000220932 2.2191e-005 -0.000956219 0.000122881 -2.73253e-005 -66.7416 80.4058 67.2171 -0.000437127 1.59356e-005 -2.73239e-005 -0.000136596 -0.000109305 -5.46458e-005 -6.42159 81.2158 8.01779 -0.00021856 1.68906e-005 0.000212139 0.000901593 -0.000184826 -0.000218568 -59.9282 75.5373 58.5147 35.6128 36.5932 -5.49416 -167.277 84.4999 48.8109 127.192 -11.3891 19.538 3.78727e-006 5.85306 2.97254e-005 -137.52 2.57069 0.411863 -1.05077e-006 4.49297 3.59809e-007 -0.0525891 0.00247546 -5.38853 -72.0648 39.0385 39.3397 33.3638 2.10361 14.835 0.588946 0.308273 6.35287 -99.6409 81.413 100.35 -0.0181409 3.0133e-005 -0.117315 -0.124139 0.0024112 -0.799296 -79.8382 79.5773 80.5374 -0.000260655 -0.000218512 2.35769e-005 -0.000956238 0.00012307 -2.73118e-005 -66.7416 80.4058 67.2171 -0.000437141 1.49357e-005 -2.73153e-005 -0.000136615 -0.000109209 -5.46341e-005 -6.42159 81.2158 8.01779 -0.000218577 1.9635e-005 0.000212296 0.000901568 -0.000191169 -0.000218567 0.00081454 0.56661 89.91 -37.2142 -18.976 -43.8922 -5.78087e-006 -14.4871 -8.04953e-007 53.3039 13.677 -0.00693919 4.74271e-007 20.419 4.36564e-007 -46.1227 6.55196 -5.44203 -35.4947 3.83894e-007 7.07481e-008 -180 -0.566576 -90.09 -25.2121 -0.209359 -12.5149 2.27368e-006 5.78758 -9.42262e-008 48.3365 20.4876 -0.00633646 5.44323e-007 30.6421 1.8856e-006 -70.854 13.2566 -7.80004 -35.4947 6.8927e-007 1.90194e-007 
38.8097 132.954 63.1067 -90.5399 -23.9811 -94.3286 -180 -6.53164e-013 -90 5.58076 0.748955 -0.330626 11.1671 1.46175 -0.732622 11.1671 1.46218 -0.732707 3.49408 17.7159 -22.3851 -11.5604 12.3752 6.21 120.092 75.5343 58.4939 -0.859599 -27.6259 -8.89138 -167.277 84.4999 48.8109 -175.55 -28.1778 24.9503 1.46907e-005 -29.8299 2.40041e-005 -151.426 -4.91291 0.292169 -1.65285e-007 -6.34789 -4.0078e-007 4.40015 2.14841 52.0319 -72.0648 39.0385 39.3397 33.3638 2.10362 14.835 0.588947 0.308273 6.35287 -99.6409 81.413 100.35 -0.0181409 2.77686e-005 -0.117315 -0.124139 0.00241111 -0.799296 -79.8382 79.5773 80.5374 -0.000225771 -0.000220932 2.2191e-005 -0.000956219 0.000122881 -2.73253e-005 -66.7416 80.4058 67.2171 -0.000437127 1.59356e-005 -2.73239e-005 -0.000136596 -0.000109305 -5.46458e-005 -6.42159 81.2158 8.01779 -0.00021856 1.68906e-005 0.000212139 0.000901593 -0.000184826 -0.000218568 -59.9282 75.5373 58.5147 35.7716 37.2149 -5.56968 -167.277 84.4999 48.8109 128.727 -11.0331 20.3773 3.51094e-006 6.38239 2.97548e-005 -137.53 2.71008 0.411841 -1.05209e-006 4.70229 3.59915e-007 -0.0525891 0.00247546 -5.38853 -72.0648 39.0385 39.3397 33.3638 2.10361 14.835 0.588946 0.308273 6.35287 -99.6409 81.413 100.35 -0.0181409 3.0133e-005 -0.117315 -0.124139 0.0024112 -0.799296 -79.8382 79.5773 80.5374 -0.000260655 -0.000218512 2.35769e-005 -0.000956238 0.00012307 -2.73118e-005 -66.7416 80.4058 67.2171 -0.000437141 1.49357e-005 -2.73153e-005 -0.000136615 -0.000109209 -5.46341e-005 -6.42159 81.2158 8.01779 -0.000218577 1.9635e-005 0.000212296 0.000901568 -0.000191169 -0.000218567 0.00081454 0.56661 89.91 -39.4332 -17.743 -43.5554 -5.77461e-006 -14.0543 -8.03408e-007 53.4055 12.9226 -0.00693123 4.83407e-007 19.2872 4.33461e-007 -46.0097 5.67121 -4.7219 -35.4947 8.26514e-007 9.46798e-007 -180 -0.566576 -90.09 -23.451 -0.597456 -12.8085 2.2735e-006 5.67548 -9.42077e-008 42.2479 20.407 -0.00578904 5.48559e-007 30.5312 1.88344e-006 -70.1824 10.9556 -6.67192 -35.4947 7.07734e-007 2.0146e-007 
